<svg xmlns="http://www.w3.org/2000/svg" width="22.287" height="24.001" viewBox="0 0 22.287 24.001">
    <path d="M1.714 22.288h3.858V18.43H1.714zm4.714 0h4.286V18.43H6.429v3.858zm-4.714-4.715h3.858v-4.286H1.714zm4.714 0h4.286v-4.286H6.429v4.286zM1.714 12.43h3.858V8.572H1.714zm9.858 9.858h4.286V18.43h-4.286zM6.429 12.43h4.286V8.572H6.429zm10.287 9.858h3.858V18.43h-3.858zm-5.143-4.714h4.286v-4.287h-4.287v4.286zM6.858 6V2.143a.435.435 0 0 0-.429-.429h-.857a.435.435 0 0 0-.429.429V6a.435.435 0 0 0 .429.429h.857A.435.435 0 0 0 6.858 6zm9.858 11.572h3.858v-4.285h-3.858v4.286zm-5.144-5.142h4.286V8.572h-4.286zm5.143 0h3.858V8.572h-3.858zM17.144 6V2.143a.435.435 0 0 0-.429-.429h-.857a.434.434 0 0 0-.428.429V6a.435.435 0 0 0 .429.429h.857A.435.435 0 0 0 17.144 6zm5.143-.857v17.144A1.737 1.737 0 0 1 20.573 24H1.714a1.647 1.647 0 0 1-1.205-.509A1.647 1.647 0 0 1 0 22.287V5.143a1.647 1.647 0 0 1 .509-1.205 1.647 1.647 0 0 1 1.205-.509h1.714V2.143a2.063 2.063 0 0 1 .63-1.514A2.064 2.064 0 0 1 5.572 0h.857a2.063 2.063 0 0 1 1.514.629 2.063 2.063 0 0 1 .629 1.513v1.287h5.143V2.143a2.063 2.063 0 0 1 .629-1.514A2.063 2.063 0 0 1 15.858 0h.857a2.063 2.063 0 0 1 1.513.629 2.063 2.063 0 0 1 .629 1.513v1.287h1.714a1.647 1.647 0 0 1 1.205.509 1.647 1.647 0 0 1 .509 1.205z" style="fill:#10519e"/>
</svg>
