<svg xmlns="http://www.w3.org/2000/svg" width="42.806" height="38.387" viewBox="0 0 42.806 38.387">
  <path id="celcius-black-icon" d="M0,10.182A7.174,7.174,0,0,1,2.191,4.919,7.185,7.185,0,0,1,7.455,2.728a7.073,7.073,0,0,1,5.207,2.191,7.2,7.2,0,0,1,2.171,5.264,7.219,7.219,0,0,1-2.171,5.264,7.066,7.066,0,0,1-5.207,2.191,7.174,7.174,0,0,1-5.264-2.191A7.185,7.185,0,0,1,0,10.182Zm3.613,0A3.71,3.71,0,0,0,4.727,12.91a3.8,3.8,0,0,0,5.456,0,3.8,3.8,0,0,0,0-5.456A3.729,3.729,0,0,0,7.455,6.3,3.679,3.679,0,0,0,4.727,7.434,3.774,3.774,0,0,0,3.613,10.182ZM19.559,28.319a14.2,14.2,0,0,0,2.612,8.416,9.567,9.567,0,0,0,3.8,3.055,12.789,12.789,0,0,0,5.495,1.133q8.992,0,11.259-6.84a2.079,2.079,0,0,0-.25-1.671,1.922,1.922,0,0,0-1.365-.941,1.989,1.989,0,0,0-1.653.268,2.132,2.132,0,0,0-.961,1.383,1.036,1.036,0,0,1-.058.211l-.094.29A5.29,5.29,0,0,1,36.5,35.467a9.7,9.7,0,0,1-5.034,1.153,8.483,8.483,0,0,1-3.421-.654,6.3,6.3,0,0,1-3.5-3.65,10.522,10.522,0,0,1-.691-4V15.1a14.832,14.832,0,0,1,.115-1.845,7.691,7.691,0,0,1,1.845-4.265Q27.627,6.84,31.471,6.84A9.714,9.714,0,0,1,36.5,7.954,4.9,4.9,0,0,1,38.349,9.8q.039.115.1.326a1.64,1.64,0,0,1,.058.25,1.947,1.947,0,0,0,.961,1.248,2.334,2.334,0,0,0,1.653.211,2.084,2.084,0,0,0,1.364-.941,1.977,1.977,0,0,0,.25-1.634V9.22l-.346-.961A9.489,9.489,0,0,0,41.252,6.49a8.513,8.513,0,0,0-1.863-1.805,10.978,10.978,0,0,0-3.363-1.537,16.04,16.04,0,0,0-4.555-.612,13.158,13.158,0,0,0-5.515,1.1,9.132,9.132,0,0,0-3.745,2.977A14.068,14.068,0,0,0,19.559,15.1V28.32Z" transform="translate(0 -2.536)" fill="#0e315a"/>
</svg>
