<svg xmlns="http://www.w3.org/2000/svg" width="28.097" height="25.196" viewBox="0 0 28.097 25.196">
    <path d="M0 7.555A4.709 4.709 0 0 1 1.438 4.1a4.716 4.716 0 0 1 3.455-1.438A4.643 4.643 0 0 1 8.311 4.1a4.728 4.728 0 0 1 1.425 3.455 4.739 4.739 0 0 1-1.425 3.455 4.638 4.638 0 0 1-3.418 1.438 4.709 4.709 0 0 1-3.455-1.438A4.716 4.716 0 0 1 0 7.555zm2.371 0a2.435 2.435 0 0 0 .729 1.79 2.5 2.5 0 0 0 3.581 0 2.5 2.5 0 0 0 0-3.581 2.448 2.448 0 0 0-1.79-.757 2.415 2.415 0 0 0-1.79.744 2.477 2.477 0 0 0-.73 1.804zm10.467 11.9a9.322 9.322 0 0 0 1.715 5.524 6.279 6.279 0 0 0 2.5 2.006 8.394 8.394 0 0 0 3.606.744q5.9 0 7.39-4.489a1.364 1.364 0 0 0-.164-1.1 1.261 1.261 0 0 0-.9-.618 1.305 1.305 0 0 0-1.085.178 1.4 1.4 0 0 0-.631.908.68.68 0 0 1-.038.138l-.061.191a3.472 3.472 0 0 1-1.211 1.211 6.364 6.364 0 0 1-3.3.757 5.568 5.568 0 0 1-2.245-.429 4.136 4.136 0 0 1-2.3-2.4 6.906 6.906 0 0 1-.454-2.623v-8.67a9.736 9.736 0 0 1 .076-1.211 5.048 5.048 0 0 1 1.211-2.8 4.572 4.572 0 0 1 3.708-1.412 6.376 6.376 0 0 1 3.3.731A3.217 3.217 0 0 1 25.172 7.3q.026.076.064.214a1.076 1.076 0 0 1 .038.164 1.278 1.278 0 0 0 .626.822 1.532 1.532 0 0 0 1.085.138 1.368 1.368 0 0 0 .9-.618 1.3 1.3 0 0 0 .164-1.072v-.025l-.227-.631a6.228 6.228 0 0 0-.744-1.161 5.587 5.587 0 0 0-1.223-1.185 7.205 7.205 0 0 0-2.207-1.009 10.528 10.528 0 0 0-2.99-.4 8.636 8.636 0 0 0-3.62.719A5.994 5.994 0 0 0 14.58 5.21a9.234 9.234 0 0 0-1.74 5.574v8.676z" transform="translate(0 -2.536)" style="fill:#d0eefa"/>
</svg>
