<svg xmlns="http://www.w3.org/2000/svg" width="285.747" height="185.208" viewBox="0 0 285.747 185.208">
    <path data-name="Path 1" d="M172.239 15.257A84.312 84.312 0 1 1 65.084 67.544a84.232 84.232 0 0 1 107.155-52.287z" transform="translate(33.407 5.87)" style="fill:#6cc8f0;fill-rule:evenodd"/>
    <path data-name="Path 2" d="M255.348 64.6a31.117 31.117 0 0 0-11.713 2.307 56.38 56.38 0 0 0 .161-4.284 62.875 62.875 0 0 0-115.854-33.607 61.927 61.927 0 0 0-23.22-4.545 62.847 62.847 0 0 0-62.774 62.776c0 1.373.051 2.771.155 4.228A30.952 30.952 0 0 0 30.4 89.222a30.4 30.4 0 0 0 0 60.8h199.565a21.44 21.44 0 0 0 21.346-24.622h4.037a30.4 30.4 0 1 0 0-60.8zm-25.383 77.822H30.4a22.8 22.8 0 0 1 0-45.6 21.9 21.9 0 0 1 13.993 4.751 3.8 3.8 0 0 0 6.17-3.551 64.872 64.872 0 0 1-1.012-10.775 55.086 55.086 0 0 1 98.649-33.8c.289.373.578.745.857 1.124q.293.4.581.8a55.527 55.527 0 0 1 8.016 16.516l.033.109q.436 1.5.787 3.034a135.962 135.962 0 0 1 .311.86 3.853 3.853 0 0 0 .321.484c.062.089.11.188.18.272a3.734 3.734 0 0 0 .62.571c.017.012.029.031.047.043a3.288 3.288 0 0 0 1.455.62c.082.017.161.053.244.064a3.79 3.79 0 0 0 2.618-.588 35.46 35.46 0 0 1 55.06 29.657c0 1.515-.148 3.119-.29 4.67a3.8 3.8 0 0 0 5.282 3.84 14.035 14.035 0 1 1 5.647 26.906zm25.383-24.622H248.9a21.756 21.756 0 0 0-12.519-10.116h-.006a21.539 21.539 0 0 0-3.989-.832 12.653 12.653 0 0 0-.441-.045c-.654-.061-1.312-.1-1.978-.1a20.849 20.849 0 0 0-3.04.224 43.214 43.214 0 0 0-43.167-43.088q-1.251 0-2.494.075c-.293.017-.585.054-.877.078-.536.042-1.071.078-1.6.141-.2.023-.4.061-.6.087-.623.084-1.245.166-1.863.276-.042.008-.082.019-.124.026-.773.14-1.542.3-2.306.48-.036.009-.071.02-.106.028a43.022 43.022 0 0 0-4.655 1.407c-.056.02-.11.045-.166.067q-1.085.4-2.152.857c-.188.082-.373.179-.561.262-.57.256-1.14.512-1.7.795a61.869 61.869 0 0 0-7.737-16.023c-.152-.228-.314-.449-.469-.675-.311-.449-.623-.9-.944-1.335a61.675 61.675 0 0 0-1.158-1.536l-.171-.219A62.907 62.907 0 0 0 134.9 32.221a55.293 55.293 0 0 1 101.3 30.4 51.519 51.519 0 0 1-1.137 10.625 3.8 3.8 0 0 0 6.032 3.79 23.553 23.553 0 0 1 14.255-4.84 22.8 22.8 0 0 1 0 45.6z" style="fill:#10519e"/>
</svg>
