<svg xmlns="http://www.w3.org/2000/svg" width="52.397" height="41.45" viewBox="0 0 52.397 41.45">
    <path data-name="Path 33" d="M28.125 22.5c0 6.214-3.911 10.125-10.125 10.125S7.875 28.714 7.875 22.5c0-6.668 7.258-15.669 9.484-18.273a.844.844 0 0 1 1.282 0c2.226 2.604 9.484 11.605 9.484 18.273z" style="stroke-miterlimit:10;fill:none;stroke:#0e315a;stroke-width:2.25px" transform="translate(11.875 7.7)"/>
    <path data-name="Path 34" d="M24.188 23.063a5.063 5.063 0 0 1-5.063 5.063" style="stroke-linecap:round;stroke-linejoin:round;fill:none;stroke:#0e315a;stroke-width:2.25px" transform="translate(11.875 7.7)"/>
    <path d="M14.084 2.526c-.013-.017-.029-.029-.038-.042a.846.846 0 0 0-.582-.231.83.83 0 0 0-.582.231.376.376 0 0 0-.038.042c-.256.264-.578.6-.938 1.01a27.317 27.317 0 0 0-2.45 3.217 15.111 15.111 0 0 0-2.685 7.669v.167a6.213 6.213 0 0 0 .456 2.337 6.4 6.4 0 0 0 .637 1.181 6.758 6.758 0 0 0 5.6 2.907 6.567 6.567 0 0 0 6.7-6.425c0-5.357-4.406-10.362-6.073-12.063zm-.628 16.142a4.207 4.207 0 0 1-1.839-.423 7.576 7.576 0 0 0 5.683-5.423 4.186 4.186 0 0 1-3.849 5.847z" transform="translate(32.241 -2.25)" style="fill:#44a0db"/>
    <path data-name="waterdrop" d="M14.084 2.526c-.013-.017-.029-.029-.038-.042a.846.846 0 0 0-.582-.231.83.83 0 0 0-.582.231.376.376 0 0 0-.038.042c-.256.264-.578.6-.938 1.01a27.317 27.317 0 0 0-2.45 3.217 15.111 15.111 0 0 0-2.685 7.669v.167a6.213 6.213 0 0 0 .456 2.337 6.4 6.4 0 0 0 .637 1.181 6.758 6.758 0 0 0 5.6 2.907 6.567 6.567 0 0 0 6.7-6.425c0-5.357-4.406-10.362-6.073-12.063zm-.628 16.142a4.207 4.207 0 0 1-1.839-.423 7.576 7.576 0 0 0 5.683-5.423 4.186 4.186 0 0 1-3.849 5.847z" transform="translate(-6.759 9.382)" style="fill:#44a0db"/>
</svg>
