<svg id="mostly_cloudly" data-name="mostly cloudly" xmlns="http://www.w3.org/2000/svg" width="64.517" height="32.168" viewBox="0 0 64.517 32.168">
  <g id="Group_3" data-name="Group 3" transform="translate(0 2.062)">
    <g id="Group_2" data-name="Group 2" transform="translate(0 0)">
      <path id="Path_3" data-name="Path 3" d="M49.063,24q.035-.368.035-.734a8.372,8.372,0,0,0-8.36-8.359,8.268,8.268,0,0,0-4.394,1.253,9.964,9.964,0,0,0-19.613.318,8.052,8.052,0,0,0-2.7-.47,8.371,8.371,0,0,0-8.361,8.361c0,.1,0,.2.013.3C3.343,25.3-.008,26.655,0,31.429a7.023,7.023,0,0,0,6.967,6.782l41.981-.2a7.862,7.862,0,0,0,5.25-7.7A7.03,7.03,0,0,0,49.063,24Z" transform="translate(0 -8.106)" fill="#44a0db"/>
    </g>
  </g>
  <g id="Group_5" data-name="Group 5" transform="translate(9.486)">
    <g id="Group_4" data-name="Group 4">
      <path id="Path_4" data-name="Path 4" d="M44.657,30.931h-.011a7.459,7.459,0,0,1-7.359-7.194c-.008-4.752,3.138-6.33,5.665-7.069A8.783,8.783,0,0,1,51.726,7.9a8.433,8.433,0,0,1,2.374.343A10.259,10.259,0,0,1,63.744.016C63.939.005,64.135,0,64.33,0a10.183,10.183,0,0,1,10,7.821,8.769,8.769,0,0,1,12.876,7.75c0,.146,0,.293-.012.442a7.373,7.373,0,0,1,5.111,6.593,8.235,8.235,0,0,1-5.531,8.107l-.062.021h-.066Zm7.068-22.2a7.957,7.957,0,0,0-7.948,7.948c0,.087,0,.173.012.267l.028.342-.331.09c-2.507.683-5.383,2.022-5.375,6.362a6.636,6.636,0,0,0,6.563,6.371l41.9-.2a7.5,7.5,0,0,0,4.907-7.262A6.585,6.585,0,0,0,86.643,16.7l-.323-.1.032-.336c.022-.234.033-.468.033-.7A7.942,7.942,0,0,0,74.261,8.815l-.522.326-.1-.606a9.551,9.551,0,0,0-18.8.306l-.069.5-.477-.169A7.654,7.654,0,0,0,51.726,8.726Z" transform="translate(-37.287 0)" fill="#10519e"/>
    </g>
  </g>
</svg>
