<svg xmlns="http://www.w3.org/2000/svg" width="16.843" height="23.997" viewBox="0 0 16.843 23.997">
    <path d="M8.393.25a8.184 8.184 0 0 1 5.971 2.45 8.049 8.049 0 0 1 2.479 5.943 11.483 11.483 0 0 1-.873 4.027 23.38 23.38 0 0 1-2.113 4.23q-1.239 1.943-2.479 3.662t-2.084 2.727l-.9.958q-.338-.338-.9-1.014t-2-2.619Q4.056 18.67 2.93 16.84A25.742 25.742 0 0 1 .9 12.7 11.384 11.384 0 0 1 0 8.643 8.092 8.092 0 0 1 2.45 2.7 8.092 8.092 0 0 1 8.393.25zm0 11.378a2.972 2.972 0 0 0 2.141-.873 2.927 2.927 0 0 0 0-4.225 2.967 2.967 0 0 0-2.141-.873 2.982 2.982 0 0 0-2.985 2.986 2.981 2.981 0 0 0 2.986 2.985z" transform="translate(0 -.25)" style="fill:#0e315a"/>
</svg>
