<svg xmlns="http://www.w3.org/2000/svg" width="58.779" height="55.2" viewBox="0 0 58.779 55.2">
    <g data-name="Group 10">
        <g data-name="Group 9">
            <path data-name="Path 5" d="M53.2 17.234q.038-.4.038-.8a9.078 9.078 0 0 0-9.066-9.064 8.965 8.965 0 0 0-4.765 1.359 10.8 10.8 0 0 0-21.268.345 8.731 8.731 0 0 0-2.932-.51 9.077 9.077 0 0 0-9.066 9.066c0 .106.005.212.015.326C3.625 18.649-.009 20.114 0 25.29a7.616 7.616 0 0 0 7.554 7.355l45.523-.213a8.526 8.526 0 0 0 5.693-8.344 7.623 7.623 0 0 0-5.57-6.854z" style="fill:#44a0db"/>
        </g>
    </g>
    <g data-name="Group 12">
        <g data-name="Group 11">
            <path data-name="Path 6" d="M50.289 120.064c-3.5-4.688-3.268-12.763-3.435-10.177-.437 6.75-3.1 10.177-3.1 10.177a2.944 2.944 0 0 0-.35 1.381 3.636 3.636 0 0 0 7.228 0 2.957 2.957 0 0 0-.343-1.381z" transform="translate(-31.436 -79.213)" style="fill:#10519e"/>
        </g>
    </g>
    <g data-name="Group 14">
        <g data-name="Group 13">
            <path data-name="Path 7" d="M92.872 100.561c-3.054-4.094-2.85-11.143-3-8.886-.383 5.895-2.7 8.886-2.7 8.886a2.559 2.559 0 0 0-.3 1.207 3.175 3.175 0 0 0 6.31 0 2.576 2.576 0 0 0-.31-1.207z" transform="translate(-62.904 -66.071)" style="fill:#10519e"/>
        </g>
    </g>
    <g data-name="Group 16">
        <g data-name="Group 15">
            <path data-name="Path 8" d="M84.925 161.112c-2.377-3.18-2.218-8.657-2.331-6.9a13.292 13.292 0 0 1-2.1 6.9 2.02 2.02 0 0 0-.236.937 2.467 2.467 0 0 0 4.9 0 1.993 1.993 0 0 0-.233-.937z" transform="translate(-58.12 -111.424)" style="fill:#10519e"/>
        </g>
    </g>
    <g data-name="Group 18">
        <g data-name="Group 17">
            <path data-name="Path 9" d="M66.486 82.664c-1.759-2.357-1.642-6.418-1.725-5.12a9.86 9.86 0 0 1-1.559 5.12 1.478 1.478 0 0 0-.176.7 1.828 1.828 0 0 0 3.634 0 1.475 1.475 0 0 0-.174-.7z" transform="translate(-45.641 -55.972)" style="fill:#10519e"/>
        </g>
    </g>
    <g data-name="Group 20">
        <g data-name="Group 19">
            <path data-name="Path 10" d="M131.016 103.135a2.382 2.382 0 1 1-2.383-2.379 2.383 2.383 0 0 1 2.383 2.379z" transform="translate(-91.425 -72.962)" style="fill:#10519e"/>
        </g>
    </g>
    <g data-name="Group 22">
        <g data-name="Group 21">
            <path data-name="Path 11" d="M168.319 129.425a2.38 2.38 0 1 1-2.382-2.378 2.382 2.382 0 0 1 2.382 2.378z" transform="translate(-118.44 -92)" style="fill:#10519e"/>
        </g>
    </g>
    <g data-name="Group 24">
        <g data-name="Group 23">
            <path data-name="Path 12" d="M136.1 185.22a2.38 2.38 0 1 1-2.383-2.381 2.381 2.381 0 0 1 2.383 2.381z" transform="translate(-95.107 -132.402)" style="fill:#10519e"/>
        </g>
    </g>
    <g data-name="Group 26">
        <g data-name="Group 25">
            <path data-name="Path 13" d="M166.981 101.561a1.715 1.715 0 1 1-1.716-1.713 1.716 1.716 0 0 1 1.716 1.713z" transform="translate(-118.434 -72.304)" style="fill:#10519e"/>
        </g>
    </g>
    <g data-name="Group 28">
        <g data-name="Group 27">
            <path data-name="Path 14" d="M138.154 141.911a2.169 2.169 0 1 1-2.169-2.167 2.172 2.172 0 0 1 2.169 2.167z" transform="translate(-96.903 -101.195)" style="fill:#10519e"/>
        </g>
    </g>
    <g data-name="Group 30">
        <g data-name="Group 29">
            <path data-name="Path 15" d="M168.663 166.975a2.168 2.168 0 1 1-2.17-2.167 2.17 2.17 0 0 1 2.17 2.167z" transform="translate(-118.996 -119.345)" style="fill:#10519e"/>
        </g>
    </g>
</svg>
