<svg xmlns="http://www.w3.org/2000/svg" width="17.631" height="17.631" viewBox="0 0 17.631 17.631">
    <path d="M12.206 7.459a4.571 4.571 0 0 0-1.393-3.353 4.573 4.573 0 0 0-3.354-1.394 4.57 4.57 0 0 0-3.353 1.394 4.57 4.57 0 0 0-1.394 3.353 4.574 4.574 0 0 0 1.393 3.353 4.571 4.571 0 0 0 3.354 1.393 4.569 4.569 0 0 0 3.353-1.393 4.576 4.576 0 0 0 1.394-3.353zm5.425 8.815a1.375 1.375 0 0 1-1.356 1.356 1.259 1.259 0 0 1-.954-.4l-3.634-3.63a7.255 7.255 0 0 1-4.227 1.314 7.327 7.327 0 0 1-2.9-.588 7.3 7.3 0 0 1-3.972-3.969 7.432 7.432 0 0 1 0-5.8A7.3 7.3 0 0 1 4.561.588a7.432 7.432 0 0 1 5.8 0 7.3 7.3 0 0 1 3.969 3.973 7.318 7.318 0 0 1 .588 2.9 7.254 7.254 0 0 1-1.318 4.226l3.634 3.634a1.3 1.3 0 0 1 .397.954z" style="fill:#10519e"/>
</svg>
