<svg xmlns="http://www.w3.org/2000/svg" width="53.503" height="42.573" viewBox="0 0 53.503 42.573">
    <g data-name="Group 41">
        <path data-name="Path 26" d="M72 39.323a.8.8 0 1 0 1.207-1.057l-5.967-6.824a.8.8 0 1 0-1.209 1.058z" transform="translate(-52.179 -24.704)" style="fill:#0e315a"/>
    </g>
    <g data-name="Group 42">
        <path data-name="Path 27" d="M141.664 10.678a.8.8 0 0 0 .8-.807L142.4.8a.8.8 0 1 0-1.607.012l.066 9.07a.8.8 0 0 0 .805.796z" transform="translate(-111.595)" style="fill:#0e315a"/>
    </g>
    <g data-name="Group 43">
        <path data-name="Path 28" d="m209.39 149.988-8.03-4.221a.8.8 0 0 0-.748 1.42l8.028 4.223a.8.8 0 0 0 .75-1.422z" transform="translate(-158.669 -115.464)" style="fill:#0e315a"/>
    </g>
    <g data-name="Group 44">
        <path data-name="Path 29" d="m216.518 92.977-9.008 1.053a.8.8 0 1 0 .186 1.6l9.008-1.052a.8.8 0 1 0-.186-1.6z" transform="translate(-163.913 -73.692)" style="fill:#0e315a"/>
    </g>
    <g data-name="Group 45">
        <path data-name="Path 30" d="m184.275 34.192 5.583-7.149a.8.8 0 1 0-1.261-.988l-5.588 7.153a.8.8 0 1 0 1.265.984z" transform="translate(-144.922 -20.407)" style="fill:#0e315a"/>
    </g>
    <g data-name="Group 46">
        <path data-name="Path 31" d="M42.465 70.5a11.373 11.373 0 0 0-22.24-3.353c.074-.006.146-.017.221-.021l.379-.009h.06-.185c-.075 0-.147.015-.221.021a7.43 7.43 0 0 0-3.362 1.108l-8.534-.7a.806.806 0 0 0-.133 1.614l6.969.566a7.025 7.025 0 0 0-1.591 3.429 5.925 5.925 0 0 0-1.869-.3 6.2 6.2 0 0 0-6.187 6.187v.135c-1.724.478-4.124 1.5-4.12 5A5.34 5.34 0 0 0 7.2 89.262l.293-.006c1.871-.1 9.64.006 9.642.006v-.133l.041.006.007.126v-.126c1.076.144 3.5.148 8.986.16 0 0 4.184.071 7.22.071 1.145 0 2.129-.01 2.673-.038a5.274 5.274 0 0 0 3.65-1.79 5.871 5.871 0 0 0 1.541-4.178 5.114 5.114 0 0 0-2.6-4.158c-.053-.031-.109-.055-.163-.085a11.341 11.341 0 0 0 3.975-8.617zm-2.857 12.941a4.265 4.265 0 0 1-1.117 2.992 3.646 3.646 0 0 1-2.508 1.248c-1.968.1-9.778-.037-9.795-.035-3.468-.007-8.726-.021-9.005-.03l-.018.365-.007-.367s-3.6-.047-6.51-.047c-1.391 0-2.622.011-3.235.043h-.21a3.7 3.7 0 0 1-3.9-3.446c0-2.277 1.192-2.989 3.545-3.57l.6-.24.041-.6-.026-.31a3.292 3.292 0 0 1-.039-.407 4.546 4.546 0 0 1 4.54-4.54 4.483 4.483 0 0 1 2.2.6l1.252.7-.026-1.434a5.412 5.412 0 0 1 2.285-4.491.788.788 0 0 0 .575-.381 5.8 5.8 0 0 1 1.857-.646 6.214 6.214 0 0 1 .673-.075l.3-.007a6.155 6.155 0 0 1 .7.045 5.548 5.548 0 0 1 4.955 5.166c.006.1 0 .2-.017.482l-.073 2.119 1.485-1.514a4.537 4.537 0 0 1 7.77 3.18 4.692 4.692 0 0 1-.087.886.122.122 0 0 1 0 .022l-.164.826.83.146a4.3 4.3 0 0 1 .633.163 3.572 3.572 0 0 1 2.496 3.157zm-2.092-5.665a6.179 6.179 0 0 0-9.263-4.887 7.212 7.212 0 0 0-6.046-5.689c-.081-.013-.165-.009-.246-.02a9.716 9.716 0 1 1 15.556 10.596z" transform="translate(-1.313 -46.864)" style="fill:#44a0db"/>
    </g>
    <g data-name="Group 48">
        <g data-name="Group 47">
            <path data-name="Path 32" d="M35.027 113q.025-.263.025-.524a5.977 5.977 0 0 0-5.969-5.968 5.9 5.9 0 0 0-3.137.894 7.113 7.113 0 0 0-14 .228 5.743 5.743 0 0 0-1.93-.336 5.976 5.976 0 0 0-5.969 5.969c0 .07 0 .14.01.215-1.671.452-4.063 1.416-4.057 4.822a5.014 5.014 0 0 0 4.973 4.842L34.945 123a5.613 5.613 0 0 0 3.748-5.494A5.019 5.019 0 0 0 35.027 113z" transform="translate(0 -80.571)" style="fill:#44a0db"/>
        </g>
    </g>
</svg>
