<svg xmlns="http://www.w3.org/2000/svg" width="46.729" height="29.995" viewBox="0 0 46.729 29.995">
    <g data-name="Group 41">
        <path data-name="Path 26" d="M66.528 35.028a.41.41 0 0 1-.562.036.368.368 0 0 1-.036-.536l2.958-3.228a.412.412 0 0 1 .562-.036.367.367 0 0 1 .036.536z" transform="translate(-46.83 -28.063)" style="fill:#0e315a"/>
    </g>
    <g data-name="Group 42">
        <path data-name="Path 27" d="M141.306 5.463a.471.471 0 0 1-.514-.413l.041-4.642a.477.477 0 0 1 .521-.408.472.472 0 0 1 .513.414l-.042 4.64a.473.473 0 0 1-.519.409z" transform="translate(-127.615)" style="fill:#0e315a"/>
    </g>
    <g data-name="Group 43">
        <path data-name="Path 28" d="m200.354 147.534 3.2-1.82a.307.307 0 0 1 .432.146.358.358 0 0 1-.134.467l-3.2 1.821a.309.309 0 0 1-.433-.146.359.359 0 0 1 .135-.468z" transform="translate(-200.183 -129.713)" style="fill:#0e315a"/>
    </g>
    <g data-name="Group 44">
        <path data-name="Path 29" d="m207.221 92.975 4.229.678a.505.505 0 0 1 .331.575c-.024.283-.211.485-.418.453L207.134 94a.506.506 0 0 1-.332-.576c.023-.279.211-.482.419-.449z" transform="translate(-206.799 -84.471)" style="fill:#0e315a"/>
    </g>
    <g data-name="Group 45">
        <path data-name="Path 30" d="m185.578 29.653-2.656-3.307a.363.363 0 0 1 .064-.521.387.387 0 0 1 .536.064l2.658 3.308a.364.364 0 0 1-.066.521.39.39 0 0 1-.536-.065z" transform="translate(-177.832 -23.47)" style="fill:#0e315a"/>
    </g>
    <g data-name="Group 46">
        <path data-name="Path 31" d="M1.656 68.46c0-5.147 4.935-9.335 11-9.335 4.937 0 9.123 2.775 10.51 6.583-.072 0-.142-.014-.214-.017l-.366-.007h-.058.179c.072 0 .142.012.214.017 1.2.08 1.6-.079 3.518 1.328s1.976 3.722 2.59 3.722c3.3 0 8.117 1.914 8.117 4.714v.111c1.668.392 3.989 1.233 3.985 4.1 0 2.305-2.408 4.179-5.365 4.179l-.283-.005c-1.809-.079-9.324.005-9.326.005v-.109h-.04l-.007.1v-.1c-1.041.118-3.387.122-8.692.131 0 0-4.047.058-6.984.058-1.108 0-2.06-.008-2.585-.031a5.489 5.489 0 0 1-3.53-1.47 4.417 4.417 0 0 1-1.49-3.429A4.189 4.189 0 0 1 5.344 75.6c.051-.026.106-.045.158-.07a8.809 8.809 0 0 1-3.846-7.07zm2.763 10.625A3.212 3.212 0 0 0 5.5 81.541a3.788 3.788 0 0 0 2.426 1.025c1.9.081 9.458-.03 9.474-.029 3.355-.006 8.44-.017 8.711-.025l.018.3.007-.3s3.487-.039 6.3-.039c1.345 0 2.537.009 3.129.035h.2c2.077 0 3.769-1.27 3.771-2.829 0-1.869-1.153-2.454-3.429-2.931l-.576-.2-.04-.493.025-.255a2.306 2.306 0 0 0 .038-.334c0-2.054-1.971-3.727-4.391-3.727a4.946 4.946 0 0 0-2.132.489l-1.211.575.025-1.177a4.276 4.276 0 0 0-2.211-3.687.778.778 0 0 1-.556-.313 6.3 6.3 0 0 0-1.8-.53 6.902 6.902 0 0 0-.651-.061l-.288-.006a6.82 6.82 0 0 0-.675.037c-2.61.265-4.662 2.03-4.793 4.24a3.434 3.434 0 0 0 .016.4l.071 1.74-1.432-1.246a4.774 4.774 0 0 0-3.126-1.11c-2.42 0-4.391 1.671-4.391 3.727a3.289 3.289 0 0 0 .084.727.086.086 0 0 0 0 .018l.159.678-.8.12a4.77 4.77 0 0 0-.613.134 3.07 3.07 0 0 0-2.42 2.591zm2.023-4.65c.231-2.622 2.807-4.7 5.954-4.7a6.779 6.779 0 0 1 3.006.685c.56-2.423 2.91-4.291 5.849-4.666.078-.01.16-.007.238-.016-1.315-3.064-4.772-5.264-8.831-5.264-5.187 0-9.408 3.582-9.408 7.983a7.5 7.5 0 0 0 3.193 5.978z" transform="translate(1.655 -54.026)" style="fill:#44a0db"/>
    </g>
    <g data-name="Group 48">
        <g data-name="Group 47">
            <path data-name="Path 32" d="M4.12 113.474a5.391 5.391 0 0 1-.028-.546 6.48 6.48 0 0 1 6.7-6.218 7 7 0 0 1 3.519.932 7.766 7.766 0 0 1 8.232-5.978 7.658 7.658 0 0 1 7.478 6.216 6.889 6.889 0 0 1 2.166-.35 6.479 6.479 0 0 1 6.7 6.219c0 .073 0 .145-.011.224 1.871.473 4.555 1.478 4.549 5.029 0 2.639-2.365 4.9-5.58 5.045L4.212 123.9a5.878 5.878 0 0 1-4.205-5.724 5.334 5.334 0 0 1 4.113-4.702z" transform="translate(3.311 -94.051)" style="fill:#44a0db"/>
        </g>
    </g>
</svg>
