<svg xmlns="http://www.w3.org/2000/svg" width="16.587" height="36" viewBox="0 0 16.587 36">
    <path d="M0 27.706a8.071 8.071 0 0 1 .962-3.872 8.555 8.555 0 0 1 2.688-3V4.674A4.535 4.535 0 0 1 4.994 1.36 4.465 4.465 0 0 1 8.294 0a4.5 4.5 0 0 1 3.322 1.359 4.519 4.519 0 0 1 1.351 3.315v16.16a8.428 8.428 0 0 1 2.673 3A8.281 8.281 0 0 1 8.294 36a8.137 8.137 0 0 1-4.154-1.107 8.228 8.228 0 0 1-3.025-3.017A8.112 8.112 0 0 1 0 27.706zm2.856 0a5.322 5.322 0 0 0 1.6 3.887 5.217 5.217 0 0 0 3.842 1.612 5.361 5.361 0 0 0 3.918-1.634 5.4 5.4 0 0 0 .854-6.683 5.435 5.435 0 0 0-2.145-2.008l-.458-.229a.46.46 0 0 1-.244-.473V4.674a1.731 1.731 0 0 0-.55-1.314 1.92 1.92 0 0 0-1.375-.519 1.914 1.914 0 0 0-1.352.519 1.717 1.717 0 0 0-.558 1.314v17.5a.466.466 0 0 1-.229.473l-.443.229a5.266 5.266 0 0 0-2.1 2 5.463 5.463 0 0 0-.76 2.83zm1.268 0a4.089 4.089 0 0 0 1.191 2.963 3.864 3.864 0 0 0 2.871 1.222 4 4 0 0 0 2.917-1.23 4.018 4.018 0 0 0 1.237-2.955 3.935 3.935 0 0 0-1.062-2.719A4.162 4.162 0 0 0 8.706 23.6V11.639a.456.456 0 0 0-.16-.313.5.5 0 0 0-.359-.161.452.452 0 0 0-.344.137.47.47 0 0 0-.13.336V23.6a4.092 4.092 0 0 0-2.543 1.39 3.968 3.968 0 0 0-1.046 2.716z" style="fill:#44a0db"/>
</svg>
