<svg id="wind-speed-icon" xmlns="http://www.w3.org/2000/svg" width="39.069" height="31.81" viewBox="0 0 39.069 31.81">
  <path id="wind-icon" d="M20.4.807a14.915,14.915,0,1,0,18.957,9.25A14.912,14.912,0,0,0,20.4.807Z" transform="translate(-3.942 0)" fill="#44a0db" fill-rule="evenodd"/>
  <g id="Group_37" data-name="Group 37" transform="translate(0 2.877)">
    <path id="Path_19" data-name="Path 19" d="M27.689,73.351l22-.027a5.838,5.838,0,1,1-5.832,7.539.672.672,0,1,1,1.284-.4,4.544,4.544,0,0,0,4.305,3.183,4.5,4.5,0,0,0,4.49-4.491,4.433,4.433,0,0,0-4.248-4.49L27.691,74.7h0a.672.672,0,0,1,0-1.344Z" transform="translate(-23.63 -56.061)" fill="#0e315a"/>
    <path id="Path_20" data-name="Path 20" d="M.672,25.99a.672.672,0,0,1,0-1.345h26.4a6.356,6.356,0,0,0,6.1-6.427,6.423,6.423,0,0,0-12.56-1.874.672.672,0,1,1-1.285-.394A7.766,7.766,0,1,1,27.077,25.99Z" transform="translate(4.544 -10.475)" fill="#0e315a"/>
    <path id="Path_21" data-name="Path 21" d="M60.582,31.957h17.8a2.974,2.974,0,1,0-3.012-3.841.672.672,0,0,1-1.288-.384,4.315,4.315,0,1,1,4.3,5.57h-17.8a.672.672,0,0,1,0-1.345Z" transform="translate(-59.91 -20.771)" fill="#0e315a"/>
  </g>
</svg>
